<svg xmlns="http://www.w3.org/2000/svg" viewBox="0 0 159.55 180.1"><defs><style>.cls-1{fill:#00ffb0;}.cls-2{fill:#003340;}</style></defs><g id="Layer_2" data-name="Layer 2"><g id="Layer_2-2" data-name="Layer 2"><path class="cls-1" d="M73.1,1.79,6.68,40.14A13.35,13.35,0,0,0,0,51.7v76.7A13.38,13.38,0,0,0,6.68,140L73.1,178.31a13.32,13.32,0,0,0,13.35,0L152.87,140a13.35,13.35,0,0,0,6.68-11.57V51.7a13.33,13.33,0,0,0-6.68-11.56L86.45,1.79A13.32,13.32,0,0,0,73.1,1.79Z"/><path class="cls-2" d="M83.21,53a6.87,6.87,0,0,0-6.87,11.89l54.2,31.29a6.87,6.87,0,0,0,10.3-5.94V58.57a6.85,6.85,0,0,0-3.43-5.94L83.21,21.34a6.86,6.86,0,0,0-6.87,0L22.14,52.63a6.87,6.87,0,0,0,0,11.89s76.66,44.59,92.8,54c3.09,1.79,3.2,4.27,0,6.13L83.15,143a6.12,6.12,0,0,1-6.78,0l-34-19.65v0l-7.55-4.36A6.87,6.87,0,0,1,41.65,107L63,119.34v.1l13.3,7.69a6.87,6.87,0,0,0,6.87-11.9L29,83.94a6.87,6.87,0,0,0-10.3,6v31.64a6.86,6.86,0,0,0,3.43,5.94l54.2,31.3a6.91,6.91,0,0,0,6.87,0l54.2-31.3a6.84,6.84,0,0,0,3.43-5.94,6.64,6.64,0,0,0-3.43-6c-2.3-1.34-76.66-44.59-92.8-53.94-3.09-1.79-3.2-4.28,0-6.14L76.4,37.16a6.1,6.1,0,0,1,6.78,0L113.4,54.62v0l11.46,6.61A6.87,6.87,0,0,1,118,73.15L96.61,60.81v-.1Z"/></g></g></svg>